<svg width="14" height="14" viewBox="0 0 14 14" fill="none" xmlns="http://www.w3.org/2000/svg">
<path d="M7.00002 0.333352C10.682 0.333353 13.6667 3.31802 13.6667 7.00002C13.6667 10.682 10.682 13.6667 7.00002 13.6667C3.31802 13.6667 0.333353 10.682 0.333354 7.00002C0.333354 3.31802 3.31802 0.333352 7.00002 0.333352ZM7.00002 1.66669C5.58553 1.66669 4.22898 2.22859 3.22878 3.22878C2.22859 4.22898 1.66669 5.58553 1.66669 7.00002C1.66669 8.41451 2.22859 9.77106 3.22878 10.7713C4.22898 11.7714 5.58553 12.3334 7.00002 12.3334C8.41451 12.3334 9.77106 11.7715 10.7713 10.7713C11.7715 9.77106 12.3334 8.41451 12.3334 7.00002C12.3334 5.58553 11.7715 4.22898 10.7713 3.22878C9.77106 2.22859 8.41451 1.66669 7.00002 1.66669ZM7.66669 5.00002L6.33335 5.00002L6.33335 3.66669L7.66669 3.66669L7.66669 5.00002ZM7.66669 10.3334L6.33335 10.3334L6.33335 6.33335L7.66669 6.33335L7.66669 10.3334Z" fill="#77757E" fill-opacity="0.5"/>
</svg>
