<svg xmlns="http://www.w3.org/2000/svg" width="24" height="24" viewBox="0 0 24 24">
    <path fill-opacity=".7" d="M6.549 18.537c1.06 0 1.92-.86 1.92-1.92s-.86-1.919-1.92-1.919-1.92.86-1.92 1.92.86 1.92 1.92 1.92z"/>
    <path fill-opacity=".4" d="M18.899 16.835c.92 0 1.666-.746 1.666-1.666 0-.92-.746-1.666-1.666-1.666-.92 0-1.666.746-1.666 1.666 0 .92.746 1.666 1.666 1.666z"/>
    <path fill-opacity=".2" d="M17.378 8.433c.76 0 1.377-.616 1.377-1.376 0-.76-.616-1.377-1.377-1.377-.76 0-1.376.616-1.376 1.377 0 .76.616 1.376 1.376 1.376z"/>
    <path fill-opacity=".8" d="M5.037 13.851c1.125 0 2.037-.89 2.037-1.987 0-1.098-.912-1.987-2.037-1.987S3 10.767 3 11.864c0 1.098.912 1.987 2.037 1.987z"/>
    <path fill-opacity=".6" d="M10.889 21c1.023 0 1.852-.808 1.852-1.805 0-.996-.83-1.804-1.852-1.804-1.023 0-1.852.808-1.852 1.804 0 .997.829 1.805 1.852 1.805z"/>
    <path fill-opacity=".5" d="M15.649 20.21c.971 0 1.759-.767 1.759-1.713 0-.946-.788-1.713-1.76-1.713-.971 0-1.759.767-1.759 1.713 0 .946.788 1.713 1.76 1.713z"/>
    <path fill-opacity=".9" d="M7.24 9.236c1.177 0 2.13-.93 2.13-2.078 0-1.148-.953-2.08-2.13-2.08-1.175 0-2.129.932-2.129 2.08 0 1.148.954 2.078 2.13 2.078z"/>
    <path fill-opacity=".3" d="M19.427 12.385c.869 0 1.573-.691 1.573-1.545 0-.853-.704-1.544-1.573-1.544-.87 0-1.575.691-1.575 1.544 0 .854.705 1.545 1.575 1.545z"/>
    <path  d="M12.525 7.49c1.24 0 2.246-1.004 2.246-2.245C14.77 4.005 13.765 3 12.525 3S10.28 4.005 10.28 5.245c0 1.24 1.005 2.246 2.245 2.246z"/>
</svg>
