<svg width="16" height="16" viewBox="0 0 16 16" fill="none" xmlns="http://www.w3.org/2000/svg">
<path d="M8 0.666473L13.478 1.88381C13.7827 1.95181 14 2.22181 14 2.53447V9.19247C14 10.5298 13.3313 11.7791 12.2187 12.5205L8 15.3331L3.78133 12.5205C2.668 11.7785 2 10.5298 2 9.19314V2.53447C2 2.22181 2.21733 1.95181 2.522 1.88381L8 0.666473ZM8 2.03247L3.33333 3.06914V9.19247C3.33333 10.0838 3.77867 10.9165 4.52067 11.4111L8 13.7311L11.4793 11.4111C12.2213 10.9165 12.6667 10.0845 12.6667 9.19314V3.06914L8 2.03314V2.03247ZM10.968 5.48114L11.9113 6.42381L7.66867 10.6665L4.84 7.83781L5.78267 6.89514L7.668 8.78047L10.968 5.48047V5.48114Z" fill="#49D273"/>
</svg>
