<svg width="20" height="20" viewBox="0 0 20 20" fill="none" xmlns="http://www.w3.org/2000/svg">
<path d="M6.66667 5.83334C5.5616 5.83334 4.50179 6.27233 3.72039 7.05373C2.93899 7.83513 2.5 8.89494 2.5 10C2.5 11.1051 2.93899 12.1649 3.72039 12.9463C4.50179 13.7277 5.5616 14.1667 6.66667 14.1667H13.3333C14.4384 14.1667 15.4982 13.7277 16.2796 12.9463C17.061 12.1649 17.5 11.1051 17.5 10C17.5 8.89494 17.061 7.83513 16.2796 7.05373C15.4982 6.27233 14.4384 5.83334 13.3333 5.83334H6.66667ZM6.66667 4.16667H13.3333C14.8804 4.16667 16.3642 4.78125 17.4581 5.87522C18.5521 6.96918 19.1667 8.45291 19.1667 10C19.1667 11.5471 18.5521 13.0308 17.4581 14.1248C16.3642 15.2188 14.8804 15.8333 13.3333 15.8333H6.66667C5.11957 15.8333 3.63584 15.2188 2.54188 14.1248C1.44792 13.0308 0.833336 11.5471 0.833336 10C0.833336 8.45291 1.44792 6.96918 2.54188 5.87522C3.63584 4.78125 5.11957 4.16667 6.66667 4.16667ZM6.66667 12.5C6.00363 12.5 5.36774 12.2366 4.8989 11.7678C4.43006 11.2989 4.16667 10.663 4.16667 10C4.16667 9.33696 4.43006 8.70108 4.8989 8.23224C5.36774 7.7634 6.00363 7.50001 6.66667 7.50001C7.32971 7.50001 7.96559 7.7634 8.43444 8.23224C8.90328 8.70108 9.16667 9.33696 9.16667 10C9.16667 10.663 8.90328 11.2989 8.43444 11.7678C7.96559 12.2366 7.32971 12.5 6.66667 12.5Z" fill="#77757E"/>
</svg>
